<svg
   xmlns="http://www.w3.org/2000/svg"
   width="24"
   height="24"
   version="1.1">
  <g
     id="g322"
     transform="matrix(0.07036179,0,0,0.07036179,-14.992822,34.40976)">
    <polygon
       transform="translate(0,-489)"
       style="fill:#f6851b;stroke:#f6851b"
       id="polygon2"
       points="341.74449,67.429793 405.65144,115.03317 359.42467,115.18307 " />
    <polygon
       transform="translate(0,-489)"
       style="fill:#f6851b;stroke:#f6851b"
       id="polygon4"
       points="405.65144,115.03317 341.74449,67.429793 425.21285,67.002314 " />
    <polygon
       transform="translate(0,-489)"
       style="fill:#763d16;stroke:#763d16"
       id="polygon6"
       points="235.7336,125.49567 291.45759,150.12445 238.78801,137.88718 " />
    <polygon
       transform="translate(0,-489)"
       style="fill:#763d16;stroke:#763d16"
       id="polygon8"
       points="313.727,155.27071 248.56225,174.00802 291.45759,150.12445 " />
    <polygon
       transform="translate(0,-489)"
       style="fill:#763d16;stroke:#763d16"
       id="polygon10"
       points="248.56225,174.00802 240.86049,152.76952 291.45759,150.12445 " />
    <polygon
       transform="translate(0,-489)"
       style="fill:#763d16;stroke:#763d16"
       id="polygon12"
       points="291.45759,150.12445 240.86049,152.76952 238.78801,137.88718 " />
    <polygon
       transform="translate(0,-489)"
       style="fill:#e4761b;stroke:#e4761b"
       id="polygon14"
       points="226.17183,242.73065 315.93443,291.11015 245.36926,313.52797 " />
    <polygon
       transform="translate(0,-489)"
       style="fill:#763d16;stroke:#763d16"
       id="polygon16"
       points="235.7336,125.49567 292.38464,84.867453 291.45759,150.12445 " />
    <polygon
       transform="translate(0,-489)"
       style="fill:#763d16;stroke:#763d16"
       id="polygon18"
       points="292.38464,84.867453 313.727,155.27071 291.45759,150.12445 " />
    <polygon
       transform="translate(0,-489)"
       style="fill:#e4761b;stroke:#e4761b"
       id="polygon20"
       points="341.74449,67.429793 359.42467,115.18307 241.49212,27.48473 " />
    <polygon
       transform="translate(0,-489)"
       style="fill:#763d16;stroke:#763d16"
       id="polygon22"
       points="475.74778,149.77879 518.58045,173.75506 452.57149,155.03863 " />
    <polygon
       transform="translate(0,-489)"
       style="fill:#763d16;stroke:#763d16"
       id="polygon24"
       points="528.57216,137.20261 475.74778,149.77879 531.70293,124.6517 " />
    <polygon
       transform="translate(0,-489)"
       style="fill:#763d16;stroke:#763d16"
       id="polygon26"
       points="475.74778,149.77879 526.41819,152.26266 518.58045,173.75506 " />
    <polygon
       transform="translate(0,-489)"
       style="fill:#763d16;stroke:#763d16"
       id="polygon28"
       points="528.57216,137.20261 526.41819,152.26266 475.74778,149.77879 " />
    <polygon
       transform="translate(0,-489)"
       style="fill:#e2761b;stroke:#e2761b"
       id="polygon30"
       points="425.21285,67.002314 524.1163,25.586201 405.65144,115.03317 " />
    <polygon
       transform="translate(0,-489)"
       style="fill:#763d16;stroke:#763d16"
       id="polygon32"
       points="473.45262,84.062636 531.70293,124.6517 475.74778,149.77879 " />
    <polygon
       transform="translate(0,-489)"
       style="fill:#763d16;stroke:#763d16"
       id="polygon34"
       points="452.57149,155.03863 473.45262,84.062636 475.74778,149.77879 " />
    <polygon
       transform="translate(0,-489)"
       style="fill:#e4761b;stroke:#e4761b"
       id="polygon36"
       points="449.12076,291.5992 542.10824,243.29148 522.83279,314.79497 " />
    <polygon
       transform="translate(0,-489)"
       style="fill:#f6851b;stroke:#f6851b"
       id="polygon38"
       points="248.56225,174.00802 292.86914,182.13881 226.17183,242.73065 " />
    <polygon
       transform="translate(0,-489)"
       style="fill:#f6851b;stroke:#f6851b"
       id="polygon40"
       points="292.86914,182.13881 282.78045,239.12392 226.17183,242.73065 " />
    <polygon
       transform="translate(0,-489)"
       style="fill:#e4761b;stroke:#e4761b"
       id="polygon42"
       points="315.93443,291.11015 226.17183,242.73065 282.78045,239.12392 " />
    <polygon
       transform="translate(0,-489)"
       style="fill:#763d16;stroke:#763d16"
       id="polygon44"
       points="238.78801,137.88718 228.98472,130.24095 235.7336,125.49567 " />
    <polygon
       transform="translate(0,-489)"
       style="fill:#763d16;stroke:#763d16"
       id="polygon46"
       points="238.78801,137.88718 240.86049,152.76952 231.15057,143.60821 " />
    <polygon
       transform="translate(0,-489)"
       style="fill:#763d16;stroke:#763d16"
       id="polygon48"
       points="313.727,155.27071 292.38464,84.867453 359.42467,115.18307 " />
    <polygon
       transform="translate(0,-489)"
       style="fill:#763d16;stroke:#763d16"
       id="polygon50"
       points="240.86049,152.76952 248.56225,174.00802 234.61477,157.11892 " />
    <polygon
       transform="translate(0,-489)"
       style="fill:#f6851b;stroke:#f6851b"
       id="polygon52"
       points="542.10824,243.29148 471.59245,182.02888 518.58045,173.75506 " />
    <polygon
       transform="translate(0,-489)"
       style="fill:#763d16;stroke:#763d16"
       id="polygon54"
       points="473.45262,84.062636 452.57149,155.03863 405.65144,115.03317 " />
    <polygon
       transform="translate(0,-489)"
       style="fill:#763d16;stroke:#763d16"
       id="polygon56"
       points="292.38464,84.867453 235.7336,125.49567 225.88053,74.682521 " />
    <polygon
       transform="translate(0,-489)"
       style="fill:#f6851b;stroke:#f6851b"
       id="polygon58"
       points="481.73292,239.44803 471.59245,182.02888 542.10824,243.29148 " />
    <polygon
       transform="translate(0,-489)"
       style="fill:#e4761b;stroke:#e4761b"
       id="polygon60"
       points="542.10824,243.29148 449.12076,291.5992 481.73292,239.44803 " />
    <polygon
       transform="translate(0,-489)"
       style="fill:#763d16;stroke:#763d16"
       id="polygon62"
       points="531.70293,124.6517 538.47411,129.41616 528.57216,137.20261 " />
    <polygon
       transform="translate(0,-489)"
       style="fill:#763d16;stroke:#763d16"
       id="polygon64"
       points="532.67935,156.64088 518.58045,173.75506 526.41819,152.26266 " />
    <polygon
       transform="translate(0,-489)"
       style="fill:#763d16;stroke:#763d16"
       id="polygon66"
       points="536.22997,142.95619 526.41819,152.26266 528.57216,137.20261 " />
    <polygon
       transform="translate(0,-489)"
       style="fill:#f6851b;stroke:#f6851b"
       id="polygon68"
       points="292.86914,182.13881 248.56225,174.00802 313.727,155.27071 " />
    <polygon
       transform="translate(0,-489)"
       style="fill:#763d16;stroke:#763d16"
       id="polygon70"
       points="531.70293,124.6517 473.45262,84.062636 541.04922,73.151273 " />
    <polygon
       transform="translate(0,-489)"
       style="fill:#f6851b;stroke:#f6851b"
       id="polygon72"
       points="452.57149,155.03863 518.58045,173.75506 471.59245,182.02888 " />
    <polygon
       transform="translate(0,-489)"
       style="fill:#e4761b;stroke:#e4761b"
       id="polygon74"
       points="362.43181,184.00226 313.727,155.27071 359.42467,115.18307 " />
    <polygon
       transform="translate(0,-489)"
       style="fill:#e4761b;stroke:#e4761b"
       id="polygon76"
       points="313.727,155.27071 362.43181,184.00226 292.86914,182.13881 " />
    <polygon
       transform="translate(0,-489)"
       style="fill:#e4761b;stroke:#e4761b"
       id="polygon78"
       points="400.61533,183.98163 452.57149,155.03863 471.59245,182.02888 " />
    <polygon
       transform="translate(0,-489)"
       style="fill:#e4761b;stroke:#e4761b"
       id="polygon80"
       points="452.57149,155.03863 400.61533,183.98163 405.65144,115.03317 " />
    <polygon
       transform="translate(0,-489)"
       style="fill:#763d16;stroke:#763d16"
       id="polygon82"
       points="292.38464,84.867453 241.49212,27.48473 359.42467,115.18307 " />
    <polygon
       transform="translate(0,-489)"
       style="fill:#763d16;stroke:#763d16"
       id="polygon84"
       points="241.49212,27.48473 292.38464,84.867453 225.88053,74.682521 " />
    <polygon
       transform="translate(0,-489)"
       style="fill:#763d16;stroke:#763d16"
       id="polygon86"
       points="473.45262,84.062636 524.1163,25.586201 541.04922,73.151273 " />
    <polygon
       transform="translate(0,-489)"
       style="fill:#763d16;stroke:#763d16"
       id="polygon88"
       points="524.1163,25.586201 473.45262,84.062636 405.65144,115.03317 " />
    <polygon
       transform="translate(0,-489)"
       style="fill:#f6851b;stroke:#f6851b"
       id="polygon90"
       points="400.61533,183.98163 359.42467,115.18307 405.65144,115.03317 " />
    <polygon
       transform="translate(0,-489)"
       style="fill:#f6851b;stroke:#f6851b"
       id="polygon92"
       points="359.42467,115.18307 400.61533,183.98163 362.43181,184.00226 " />
    <polygon
       transform="translate(0,-489)"
       style="fill:#cd6116;stroke:#cd6116"
       id="polygon94"
       points="321.36264,238.66821 315.93443,291.11015 282.78045,239.12392 " />
    <polygon
       transform="translate(0,-489)"
       style="fill:#cd6116;stroke:#cd6116"
       id="polygon96"
       points="481.73292,239.44803 449.12076,291.5992 441.92216,238.86216 " />
    <polygon
       transform="translate(0,-489)"
       style="fill:#f6851b;stroke:#f6851b"
       id="polygon98"
       points="282.78045,239.12392 292.86914,182.13881 321.36264,238.66821 " />
    <polygon
       transform="translate(0,-489)"
       style="fill:#e4751f;stroke:#e4751f"
       id="polygon100"
       points="321.36264,238.66821 292.86914,182.13881 320.63952,210.19866 " />
    <polygon
       transform="translate(0,-489)"
       style="fill:#cd6116;stroke:#cd6116"
       id="polygon102"
       points="362.43181,184.00226 320.63952,210.19866 292.86914,182.13881 " />
    <polygon
       transform="translate(0,-489)"
       style="fill:#c0ad9e;stroke:#c0ad9e"
       id="polygon104"
       points="353.15571,303.22722 329.15595,301.01091 315.93443,291.11015 " />
    <polygon
       transform="translate(0,-489)"
       style="fill:#c0ad9e;stroke:#c0ad9e"
       id="polygon106"
       points="434.61594,301.439 406.50745,303.44824 449.12076,291.5992 " />
    <polygon
       transform="translate(0,-489)"
       style="fill:#cd6116;stroke:#cd6116"
       id="polygon108"
       points="442.91825,210.25848 400.61533,183.98163 471.59245,182.02888 " />
    <polygon
       transform="translate(0,-489)"
       style="fill:#f6851b;stroke:#f6851b"
       id="polygon110"
       points="471.59245,182.02888 481.73292,239.44803 441.92216,238.86216 " />
    <polygon
       transform="translate(0,-489)"
       style="fill:#e4751f;stroke:#e4751f"
       id="polygon112"
       points="442.91825,210.25848 471.59245,182.02888 441.92216,238.86216 " />
    <polygon
       transform="translate(0,-489)"
       style="fill:#d7c1b3;stroke:#d7c1b3"
       id="polygon114"
       points="315.93443,291.11015 352.34062,289.80868 353.15571,303.22722 " />
    <polygon
       transform="translate(0,-489)"
       style="fill:#e4761b;stroke:#e4761b"
       id="polygon116"
       points="321.36264,238.66821 355.66606,261.29798 315.93443,291.11015 " />
    <polygon
       transform="translate(0,-489)"
       style="fill:#d7c1b3;stroke:#d7c1b3"
       id="polygon118"
       points="352.34062,289.80868 315.93443,291.11015 355.66606,261.29798 " />
    <polygon
       transform="translate(0,-489)"
       style="fill:#d7c1b3;stroke:#d7c1b3"
       id="polygon120"
       points="406.50745,303.44824 406.2868,290.00372 449.12076,291.5992 " />
    <polygon
       transform="translate(0,-489)"
       style="fill:#e4761b;stroke:#e4761b"
       id="polygon122"
       points="449.12076,291.5992 402.78816,261.41556 441.92216,238.86216 " />
    <polygon
       transform="translate(0,-489)"
       style="fill:#d7c1b3;stroke:#d7c1b3"
       id="polygon124"
       points="402.78816,261.41556 449.12076,291.5992 406.2868,290.00372 " />
    <polygon
       transform="translate(0,-489)"
       style="fill:#cd6116;stroke:#cd6116"
       id="polygon126"
       points="320.63952,210.19866 362.43181,184.00226 345.59219,198.65478 " />
    <polygon
       transform="translate(0,-489)"
       style="fill:#f6851b;stroke:#f6851b"
       id="polygon128"
       points="355.69196,219.88346 321.36264,238.66821 320.63952,210.19866 " />
    <polygon
       transform="translate(0,-489)"
       style="fill:#233447;stroke:#233447"
       id="polygon130"
       points="345.59219,198.65478 355.69196,219.88346 320.63952,210.19866 " />
    <polygon
       transform="translate(0,-489)"
       style="fill:#cd6116;stroke:#cd6116"
       id="polygon132"
       points="400.61533,183.98163 442.91825,210.25848 417.67123,198.65731 " />
    <polygon
       transform="translate(0,-489)"
       style="fill:#f6851b;stroke:#f6851b"
       id="polygon134"
       points="442.91825,210.25848 441.92216,238.86216 407.01886,219.92806 " />
    <polygon
       transform="translate(0,-489)"
       style="fill:#233447;stroke:#233447"
       id="polygon136"
       points="442.91825,210.25848 407.01886,219.92806 417.67123,198.65731 " />
    <polygon
       transform="translate(0,-489)"
       style="fill:#cd6116;stroke:#cd6116"
       id="polygon138"
       points="355.69196,219.88346 345.59219,198.65478 362.43181,184.00226 " />
    <polygon
       transform="translate(0,-489)"
       style="fill:#cd6116;stroke:#cd6116"
       id="polygon140"
       points="400.61533,183.98163 417.67123,198.65731 407.01886,219.92806 " />
    <polygon
       transform="translate(0,-489)"
       style="fill:#f6851b;stroke:#f6851b"
       id="polygon142"
       points="400.61533,183.98163 363.59202,205.74334 362.43181,184.00226 " />
    <polygon
       transform="translate(0,-489)"
       style="fill:#e4751f;stroke:#e4751f"
       id="polygon144"
       points="363.59202,205.74334 355.69196,219.88346 362.43181,184.00226 " />
    <polygon
       transform="translate(0,-489)"
       style="fill:#f6851b;stroke:#f6851b"
       id="polygon146"
       points="363.59202,205.74334 400.61533,183.98163 398.65494,205.75433 " />
    <polygon
       transform="translate(0,-489)"
       style="fill:#e2761b;stroke:#e2761b"
       id="polygon148"
       points="400.61533,183.98163 407.01886,219.92806 398.65494,205.75433 " />
    <polygon
       transform="translate(0,-489)"
       style="fill:#c0ad9e;stroke:#c0ad9e"
       id="polygon150"
       points="329.15595,301.01091 353.15571,303.22722 355.39068,315.20371 " />
    <polygon
       transform="translate(0,-489)"
       style="fill:#c0ad9e;stroke:#c0ad9e"
       id="polygon152"
       points="406.50745,303.44824 434.61594,301.439 404.03316,315.42807 " />
    <polygon
       transform="translate(0,-489)"
       style="fill:#f6851b;stroke:#f6851b"
       id="polygon154"
       points="355.69196,219.88346 355.66606,261.29798 321.36264,238.66821 " />
    <polygon
       transform="translate(0,-489)"
       style="fill:#f6851b;stroke:#f6851b"
       id="polygon156"
       points="402.78816,261.41556 407.01886,219.92806 441.92216,238.86216 " />
    <polygon
       transform="translate(0,-489)"
       style="fill:#f6851b;stroke:#f6851b"
       id="polygon158"
       points="355.66606,261.29798 355.69196,219.88346 361.73098,257.09121 " />
    <polygon
       transform="translate(0,-489)"
       style="fill:#e4751f;stroke:#e4751f"
       id="polygon160"
       points="355.69196,219.88346 363.59202,205.74334 361.73098,257.09121 " />
    <polygon
       transform="translate(0,-489)"
       style="fill:#e4751f;stroke:#e4751f"
       id="polygon162"
       points="396.70408,257.17268 398.65494,205.75433 407.01886,219.92806 " />
    <polygon
       transform="translate(0,-489)"
       style="fill:#f6851b;stroke:#f6851b"
       id="polygon164"
       points="407.01886,219.92806 402.78816,261.41556 396.70408,257.17268 " />
    <polygon
       transform="translate(0,-489)"
       style="fill:#f6851b;stroke:#f6851b"
       id="polygon166"
       points="396.70408,257.17268 363.59202,205.74334 398.65494,205.75433 " />
    <polygon
       transform="translate(0,-489)"
       style="fill:#f6851b;stroke:#f6851b"
       id="polygon168"
       points="363.59202,205.74334 396.70408,257.17268 361.73098,257.09121 " />
    <polygon
       transform="translate(0,-489)"
       style="fill:#c0ad9e;stroke:#c0ad9e"
       id="polygon170"
       points="352.34062,289.80868 355.39068,315.20371 353.15571,303.22722 " />
    <polygon
       transform="translate(0,-489)"
       style="fill:#c0ad9e;stroke:#c0ad9e"
       id="polygon172"
       points="404.03316,315.42807 406.2868,290.00372 406.50745,303.44824 " />
    <polygon
       transform="translate(0,-489)"
       style="fill:#c0ad9e;stroke:#c0ad9e"
       id="polygon174"
       points="355.39068,315.20371 352.34062,289.80868 355.21554,286.23817 " />
    <polygon
       transform="translate(0,-489)"
       style="fill:#c0ad9e;stroke:#c0ad9e"
       id="polygon176"
       points="402.91174,286.40391 355.39068,315.20371 355.21554,286.23817 " />
    <polygon
       transform="translate(0,-489)"
       style="fill:#c0ad9e;stroke:#c0ad9e"
       id="polygon178"
       points="355.39068,315.20371 402.91174,286.40391 404.03316,315.42807 " />
    <polygon
       transform="translate(0,-489)"
       style="fill:#c0ad9e;stroke:#c0ad9e"
       id="polygon180"
       points="406.2868,290.00372 404.03316,315.42807 402.91174,286.40391 " />
    <polygon
       transform="translate(0,-489)"
       style="fill:#161616;stroke:#161616"
       id="polygon182"
       points="355.66606,261.29798 355.21554,286.23817 352.34062,289.80868 " />
    <polygon
       transform="translate(0,-489)"
       style="fill:#161616;stroke:#161616"
       id="polygon184"
       points="402.91174,286.40391 402.78816,261.41556 406.2868,290.00372 " />
    <polygon
       transform="translate(0,-489)"
       style="fill:#161616;stroke:#161616"
       id="polygon186"
       points="355.21554,286.23817 355.66606,261.29798 357.03538,265.87574 " />
    <polygon
       transform="translate(0,-489)"
       style="fill:#161616;stroke:#161616"
       id="polygon188"
       points="360.91313,261.51063 355.66606,261.29798 361.73098,257.09121 " />
    <polygon
       transform="translate(0,-489)"
       style="fill:#161616;stroke:#161616"
       id="polygon190"
       points="355.66606,261.29798 360.91313,261.51063 357.03538,265.87574 " />
    <polygon
       transform="translate(0,-489)"
       style="fill:#161616;stroke:#161616"
       id="polygon192"
       points="396.70408,257.17268 360.91313,261.51063 361.73098,257.09121 " />
    <polygon
       transform="translate(0,-489)"
       style="fill:#161616;stroke:#161616"
       id="polygon194"
       points="360.91313,261.51063 396.70408,257.17268 396.53955,261.59981 " />
    <polygon
       transform="translate(0,-489)"
       style="fill:#161616;stroke:#161616"
       id="polygon196"
       points="402.78816,261.41556 396.53955,261.59981 396.70408,257.17268 " />
    <polygon
       transform="translate(0,-489)"
       style="fill:#161616;stroke:#161616"
       id="polygon198"
       points="402.78816,261.41556 402.91174,286.40391 400.42888,265.99181 " />
    <polygon
       transform="translate(0,-489)"
       style="fill:#161616;stroke:#161616"
       id="polygon200"
       points="396.53955,261.59981 402.78816,261.41556 400.42888,265.99181 " />
    <polygon
       transform="translate(0,-489)"
       style="fill:#161616;stroke:#161616"
       id="polygon202"
       points="357.03538,265.87574 402.91174,286.40391 355.21554,286.23817 " />
    <polygon
       transform="translate(0,-489)"
       style="fill:#161616;stroke:#161616"
       id="polygon204"
       points="402.91174,286.40391 357.03538,265.87574 400.42888,265.99181 " />
    <polygon
       transform="translate(0,-489)"
       style="fill:#161616;stroke:#161616"
       id="polygon206"
       points="396.53955,261.59981 357.03538,265.87574 360.91313,261.51063 " />
    <polygon
       transform="translate(0,-489)"
       style="fill:#161616;stroke:#161616"
       id="polygon208"
       points="357.03538,265.87574 396.53955,261.59981 400.42888,265.99181 " />
  </g>
</svg>
